<svg version="1.2" xmlns="http://www.w3.org/2000/svg" viewBox="0 0 427 181" width="427" height="181">
	<title>Qmimo fundo branco</title>
	<style>
		.s0 { fill: #374e6e } 
		.s1 { fill: #f0c23b } 
		.s2 { fill: #27233c } 
		.s3 { fill: #79c6b2 } 
		.s4 { fill: #e87972 } 
	</style>
	<path id="Preencher com Cor Sólida 8" class="s0" d="m119.6 19.3c-1.6 0.6-3.3 1.5-3.8 2.1-0.4 0.6-0.8 2.7-0.8 4.6 0 1.9-0.6 5.1-1.4 7-0.7 1.9-2 4-2.7 4.6-0.8 0.6-3.1 1.4-5.1 1.8-3.2 0.5-4.3 0.2-6.5-1.9-1.6-1.4-4.4-2.8-6.3-3.1-1.9-0.3-5.9-1.2-8.7-2-5-1.3-5.5-1.3-8 0.6-1.9 1.4-4.3 2.1-7.3 2-3.7 0-5.8-0.9-12-5.2-4.1-2.8-8.4-6-9.5-7-1.6-1.5-3-1.8-7-1.4-2.7 0.2-7 0.8-9.5 1.3-2.5 0.5-6.5 1.8-9 2.9-2.5 1.1-4.8 2.5-5.2 3.2-0.5 0.7-1.9 1.6-3.3 2.2-1.8 0.7-2.5 1.8-2.5 3.7 0 1.6 0.6 3.7 1.4 4.8 0.8 1.1 2.2 5.5 3.2 9.9 1.3 5.1 2.5 8.1 3.7 8.7 0.9 0.5 1.7 2 1.7 3.4 0 1.6 0.8 2.9 2.3 3.7 1.3 0.7 7.5 1.3 14.7 1.4 12.5 0.3 12.5 0.3 15.5 3.3 2.4 2.5 2.8 3.3 1.7 4.3-0.7 0.7-1.2 2.2-1.2 3.3-0.1 1.1 0.9 2.9 2 4 1.4 1.3 2 3 1.8 4.9-0.3 2.7-0.8 3.1-6.6 4.5-3.4 0.9-6.2 2.1-6.2 2.6 0 0.5 0.4 1.5 1 2 0.8 0.7 0.3 1.5-1.5 2.8-1.4 0.9-3.5 2-4.7 2.3-1.3 0.3-3.4 1.5-4.8 2.7-1.4 1.2-3.3 3.3-4.3 4.7-1 1.5-1.7 4.3-1.7 7.3 0 2.6 0.5 5.6 1 6.7 0.6 1.1 2.7 3.1 4.8 4.3 2 1.3 5.1 2.7 6.7 3.1 1.7 0.4 5.3 1.8 8 3.1 2.8 1.3 7 2.6 9.5 2.9 4.2 0.6 4.7 0.5 8.2-3.1 2-2.1 5.1-6.5 6.8-9.8 1.8-3.3 3.4-6.1 3.6-6.2 0.2-0.2 2.3 1.1 4.7 2.7 2.3 1.7 6.8 3.9 10 4.8l5.8 1.7-0.1 24.5h112v9h11v-9h43c0-15.2 0.4-19 1-19 0.6 0 1 3.8 1 9.5v9.5c41.3 0 43-0.1 43-1.7 0-1.1 0.3-1.4 0.8-0.8 0.4 0.6 2.3 2.2 4.2 3.5 3.5 2.3 3.5 2.3 23.5 1.6 12.7-0.5 21.6-1.3 24.3-2.2 2.3-0.8 6.2-1.4 8.7-1.4 2.7 0 4.8 0.5 5.3 1.4 0.4 0.7 1.6 1.8 2.7 2.4 1.7 0.9 2.4 0.7 4.6-1.6 1.4-1.5 3.3-3.9 4.2-5.4 0.9-1.6 1.7-3.5 1.7-4.3 0-0.8 1-3 2.2-4.7 1.2-1.8 3.3-4.4 4.6-5.8 1.9-2 2.3-3.2 1.8-6-0.3-2.3-1.7-4.5-3.9-6.5-1.9-1.7-5.4-4-7.8-5.1-2.4-1.2-6.4-2.7-8.9-3.3-2.5-0.7-5.6-1.4-7-1.7-1.4-0.3-3.5-0.7-4.7-1-2-0.3-2.1-0.6-1-2.3 0.9-1.5 2.9-2.1 8.2-2.6 3.9-0.4 8.4-1.2 10-1.7 1.6-0.5 3.9-1.3 5-1.8 1.1-0.5 3.1-1.1 4.5-1.4 1.4-0.3 4.8-2 7.5-3.8 2.8-1.8 5.3-3.7 5.6-4.3 0.4-0.5 2.1-1.6 3.8-2.2 2.9-1.2 3.1-1.5 2.5-5.5-0.3-2.4-0.7-5.3-1-6.5-0.2-1.4-1.9-3.1-4.4-4.3-2.2-1.1-4.8-2-5.7-2-1 0-4.6-2.2-8-5l-6.3-5c-20.2 1.5-20.5 1.6-20.8 4-0.3 2.3-0.5 2.1-2.5-1.9-1.2-2.5-3.8-5.5-5.7-6.7-1.9-1.3-4.9-2.6-6.5-3-1.6-0.4-4.6-1.8-6.5-3.1-2.4-1.6-4.9-2.4-8-2.3-2.5 0-5.5 0.7-6.7 1.5-1.3 0.8-2.3 2.1-2.3 2.8 0 0.6-0.7 1.9-1.4 2.7-0.8 0.8-2.4 3.3-3.6 5.5-1.3 2.2-3.2 5.8-4.4 7.9-1.1 2.1-2.4 4-2.8 4.2-0.5 0.2-1 1.7-1.3 3.4-0.3 1.7-0.7 3-1 3-0.3 0-2.6-1.7-5.1-3.8-2.6-2-7.1-6.1-10-8.9-3-2.9-6.4-5.6-7.6-5.9-1.3-0.3-4.3 0-6.8 0.7-2.5 0.6-4.9 1.5-5.5 1.9-0.6 0.4-3.2 1.1-6 1.4-4.4 0.6-5.4 0.4-8.5-1.9-2.1-1.5-4.8-2.5-6.7-2.5-1.8 0-3.5 0.5-3.8 1q-0.5 1-3.7-0.1c-2.4-0.7-4.1-2.4-6-6-1.6-2.7-3.6-5.7-4.5-6.7-1-1-3.9-3-6.5-4.5-2.7-1.5-6.1-2.7-7.8-2.7-1.6 0-4.6 0.8-6.5 1.8-1.9 0.9-3.7 2.6-4 3.7-0.2 1.1-0.5 4.5-0.5 7.5 0 3.8 0.6 6.1 1.8 7.4 0.9 1 1.7 3 1.8 4.5q0.1 2.6-3.5 6.4c-2 2-4.5 3.7-5.6 3.7-1.1 0.1-2.9-0.9-4-2.1-1.1-1.2-2.4-3.1-3-4.2-0.6-1.1-4.1-3.9-8-6.2-3.8-2.3-8.8-4.5-11-5-2.2-0.4-10.1-0.7-17.5-0.6-8.1 0.2-15.2 0.9-17.7 1.7-3.4 1.1-4.3 1.1-4.3 0.2 0-0.7-0.8-3.2-1.8-5.5-0.9-2.4-2.3-4.3-2.9-4.3-0.7 0-1.3-0.8-1.3-1.7 0-1-0.6-3.4-1.4-5.3-0.8-1.9-1.7-6.6-2.1-10.5-0.7-6.2-1.1-7.3-3.9-9.7-1.7-1.5-3.8-2.7-4.6-2.7-0.8 0-2.8 0.6-4.4 1.2z"/>
	<path id="Preencher com Cor Sólida 7" class="s1" d="m187.1 121.9c-0.1 1.6 0.5 2.1 2.4 2.1 1.8 0 2.4-0.5 2.2-1.8-0.1-0.9-1.2-1.8-2.4-2-1.6-0.3-2.2 0.2-2.2 1.7z"/>
	<path id="Preencher com Cor Sólida 6" fill-rule="evenodd" class="s2" d="m129.8 25.2c1 0.2 2.2 1.4 2.9 2.8 0.7 1.4 1.9 6.3 2.7 11 0.7 4.7 1.7 11.3 2 14.8 0.5 5.7 0.4 6.3-1.7 7.7-2 1.3-2.5 1.2-7.7-2.5l2.2-1.9c2.3-1.9 2.3-2 1-10.7-0.8-4.9-1.8-11-2.3-13.7-0.5-2.6-0.9-5.4-0.8-6.3 0-0.9 0.8-1.4 1.7-1.2zm-44.8 20.3c1.9 0.3 4.8 1.1 6.3 1.8 1.5 0.7 2.8 1.8 2.7 2.4 0 0.9-1.2 1.1-4 0.8-3.4-0.4-4.5-0.1-7.1 2.2-1.8 1.7-3.4 4.4-3.9 6.8-0.5 2.2-1 7.4-1 11.5 0 4.1 0.7 9.6 1.5 12.2 0.8 2.7 1.3 4.8 1 4.8-0.3 0 0.2 1.3 1 3 0.8 1.7 1.5 3.5 1.5 4 0 0.5-0.6 1-1.3 1-0.6 0-2.7-2.2-4.5-5-1.7-2.7-3.9-8-4.8-11.8-1.1-4.4-1.4-9.4-1.1-14.7 0.2-4.4 1.1-9.8 2-12 1.1-2.6 2.8-4.6 4.9-5.8q3.3-1.7 6.8-1.2zm263.8 4.6c1.2 0 3.4 0.5 4.9 1.3 1.6 0.7 4.3 3.3 6.1 5.7 1.8 2.4 3.2 5.1 3.2 5.9 0 0.8 0.4 2 1 2.5 0.6 0.5 1.1 5.7 1.2 11.5 0.2 8.2-0.2 11.8-1.7 16.4-1.3 3.8-3.5 7.3-6.3 10.2-2.3 2.4-4.9 4.4-5.7 4.4-0.8 0-1.5-0.6-1.5-1.3-0.1-0.6 0.9-2.1 2-3.2 1.1-1.1 2.1-2.8 2-3.8 0-0.9 0.3-1.7 0.7-1.7 0.5 0 0.9-1.5 1.1-3.2 0.2-1.8 0.7-3.8 1.2-4.3 0.5-0.5 0.8-5.5 0.6-11-0.2-5.5-0.8-11.7-1.5-13.8-0.6-2-2.6-5.2-4.4-7.1-1.9-2-5-3.8-7.7-4.5-2.7-0.7-4.1-1.5-3.5-2.1 0.5-0.4 2.1-1 3.5-1.3 1.4-0.2 3.5-0.5 4.7-0.6zm-236.5 1.1c1.8 0.2 3.2 2.1 6.3 8.3 3.6 7.3 3.9 8.8 4.2 17 0.2 6.6-0.1 9.6-1.2 11.3-0.8 1.2-1.2 2.2-0.8 2.2 0.5 0 0.8 0.9 0.8 2 0 1.1-0.5 2-1 2-0.6 0 0.6 1 2.5 2.3 1.9 1.3 3.8 3.1 4.2 4 0.5 0.9 0.8 2.5 0.8 3.4 0.1 1-1.5 3.1-7.2 7.8l-5.8-7-2.2 3c-1.3 1.7-3.2 3.9-4.3 5-1.2 1.1-3.3 3-4.8 4.2-1.5 1.3-3.3 2.3-4 2.3-0.6 0-2.1-0.6-3.2-1.5-1.1-0.8-2.9-1.5-4-1.6q-2-0.1 1.5-1.2c1.9-0.7 5.1-2.8 7-4.7 2-1.9 4.7-5.1 8.7-10.5l3.1 2.2c1.8 1.3 3.6 2.3 4.2 2.3 0.5 0 1.7-1.1 2.5-2.5 1-1.6 1.2-3.1 0.6-4.3-0.4-0.9-2.2-2.8-7-6.7l1.4-6c0.8-3.3 1.5-8.5 1.5-11.5 0-3.2-1-8.2-2.4-12-1.2-3.6-2.6-7.3-3-8.3-0.6-1.6-0.4-1.8 1.6-1.5zm186.8 12.8c1.1 0.5 1.8 1.6 1.6 2.2-0.3 0.7 0.6 2.9 1.9 4.8 1.2 1.9 2.6 4.6 2.9 6 0.3 1.4 1.3 3.2 2.1 4 0.9 0.8 1.6 2.2 1.5 3 0 0.8 0.8 2.7 2 4.2 1.1 1.6 2 3 2 3.3 0 0.3 0.4 1.7 0.9 3.2 0.5 1.6 1.8 5.4 4.6 14.5l-2.5 1.9c-1.4 1-2.8 1.9-3.3 1.9-0.4 0-1.8-0.7-3.2-1.5-1.4-0.8-2.5-2.1-2.5-2.8 0-0.6 1.3-2.2 5.5-5.5l-2.3-6.9c-1.3-3.7-3.3-8.7-4.5-11-1.2-2.2-4-7.4-6.1-11.5-2.5-4.7-3.6-7.9-3.2-9.1 0.5-1.4 1.1-1.6 2.6-0.7zm40.8-0.8c1.6 0.2 2.7 0.9 2.7 1.8 0 0.8-0.7 1.5-1.5 1.5-0.8 0-1.8 0.6-2.3 1.2-0.4 0.7-0.5 1.8-0.2 2.3 0.3 0.5-0.2 2-1 3.2-0.8 1.3-1.6 4.5-1.7 7.3-0.1 2.7 0.1 6.9 0.3 9.3 0.3 3.4 0.8 4.2 2.4 4.2 1.1 0.1 2.5 0.8 3.2 1.8 0.7 0.9 1.3 2.3 1.3 2.9 0 0.8-1.4 1.3-3.8 1.3-2 0-4.7-0.7-6-1.5-1.2-0.8-2.9-2.8-3.7-4.5-0.8-1.7-1.5-5.7-1.5-9.3 0-3.4 0.7-8.2 1.5-10.7 0.8-2.5 2.9-6 4.5-7.8 2.3-2.5 3.7-3.3 5.8-3zm-105.8 3.5c1.2 1.2 1.5 4.3 1.3 18.6-0.1 9.5-0.7 18.1-1.2 19.2-0.5 1.1-1.2 3.7-1.5 5.7-0.4 2.4-1.6 4.6-3.1 5.8-1.5 1.2-3.2 1.7-4.3 1.3-0.9-0.3-2.3-1.1-3-1.7-0.7-0.6-1.3-1.9-1.2-2.9 0-0.9 0.7-1.7 1.5-1.7 0.8 0 1.9-0.9 2.5-2 0.5-1.1 1.9-7.2 3-13.5 1.2-6.9 1.9-15.1 1.8-20.4-0.2-7 0.1-9 1.2-9.4 0.8-0.2 2.1 0.2 3 1zm-77.7 1.3c1.2 0 3.1 0.7 4.2 1.6 1.6 1.1 1.8 1.8 0.9 3.2-0.6 0.9-2.4 2.4-4 3.2-1.6 0.8-3.4 2.2-4.2 3-0.9 1.1-1.1 4.4-0.6 13.5 0.3 6.6 0.6 13.1 0.7 14.5 0.1 1.4-0.7 3.7-1.6 5.2-0.9 1.6-2.3 2.8-3 2.8-0.6 0-2.2-0.8-3.5-1.8-1.3-0.9-2.1-2.4-1.8-3.2 0.3-0.8 1.6-1.8 2.8-2.2 2.2-0.7 2.3-1 1.5-7.5-0.4-3.7-1-10.9-2-24.8l3.9-3c2.1-1.7 4-3.3 4.2-3.8 0.2-0.4 1.3-0.7 2.5-0.7zm29 2c0.7 0 1.9 1.2 2.9 2.7 1.5 2.6 1.5 3-0.3 6.5-1 2.1-2.3 7.3-2.8 11.5-0.6 4.3-0.7 8.7-0.4 9.8 0.3 1.1-0.3 3.2-1.3 4.8-1.1 1.5-2.5 3-3.2 3.2-0.6 0.3-2.6-0.2-4.2-1-1.9-0.9-2.9-2.2-2.7-3.3 0.1-0.9 1.2-1.8 2.5-2 1.6-0.1 2.2-0.9 2.3-3 0.1-1.5 0-3.8-0.1-5.2-0.1-1.4 0.4-5.4 1-9 0.7-3.6 2.1-8.4 3.2-10.8 1.1-2.3 2.5-4.2 3.1-4.2zm74.2 0.1c0.5 0 1.8 0.5 2.7 1.2 1 0.7 1.7 2.1 1.8 3.2 0 1.3-1 2.4-3 3.2-1.9 0.9-2.8 1.8-2.5 2.8 0.3 0.8-0.4 2.4-1.5 3.5-1.7 1.7-2 3.3-2 10 0 4.4 0.4 10.2 1 13 0.8 4.2 0.7 5.4-0.8 7.6-1.4 2.2-2.2 2.5-4.7 2-1.7-0.4-3.8-1.5-4.7-2.4-1.4-1.4-1.5-2-0.5-3 0.6-0.7 1.8-1.3 2.4-1.2 0.7 0 1.6-1.2 2-2.8 0.3-1.5 0.1-5.7-0.5-9.5-0.7-3.7-1.2-9.5-1.2-13 0.1-4.9 0.5-6.7 2.3-8.8 1.2-1.4 3.5-3.3 5.2-4.2 1.6-0.9 3.4-1.6 4-1.6zm28.2 1.9c0.5 0 1.6 1.5 2.5 3.5 1.6 3.2 1.7 3.6 0.2 4.2-1 0.5-1.7 2.2-1.7 4.5-0.1 2-0.6 4-1 4.5-0.4 0.4-0.7 4.4-0.7 8.8 0.1 6.5-0.3 8.5-1.9 10.5-1.5 1.9-2.6 2.4-4.6 2-1.5-0.3-3.3-1.5-4.1-2.8-1.3-2-1.2-2.2 1.1-2.7 1.4-0.3 2.5-1 2.5-1.5 0-0.6 0.5-5.4 1-10.8 0.6-5.3 1.2-10.6 1.5-11.7 0.3-1.1 1.4-3.5 2.5-5.3 1.1-1.7 2.3-3.2 2.7-3.2zm-85.7 2.5c1.2 1.1 3.4 4.7 5 8 1.6 3.3 4 9 5.4 12.7 1.4 3.8 2.6 8.1 2.6 9.8q0 3-2 4c-1.1 0.5-3 0.9-4.1 0.7-1.2-0.1-2.7-1-3.3-2-0.9-1.4-0.7-2.1 1-3.5 1.2-0.9 2.4-2.5 2.8-3.5 0.3-0.9-0.8-5.3-2.6-10-1.7-4.5-4-9.7-5-11.5-1-1.7-1.8-4-1.8-5-0.1-1.5 0.1-1.5 2 0.3z"/>
	<path id="Preencher com Cor Sólida 5" fill-rule="evenodd" class="s3" d="m39.8 24.2c0.9 0.2 2.3 2.4 4.7 9.8h6.3c3.4 0 7.3 0.5 8.7 1 1.5 0.6 2.5 1.8 2.5 3 0 1.2-2 3.7-4.7 6-2.7 2.1-5.2 3.9-5.6 4-0.5 0-1.5 0.7-2.3 1.5-0.8 0.8-1.2 2.3-0.9 3.3 0.2 0.9 0.6 3.1 0.9 4.7 0.3 1.6 0 3.6-0.7 4.3-0.7 0.7-1.8 1.3-2.4 1.2-0.7 0-3-1.5-5-3.4-2.1-1.9-4.5-3.4-5.3-3.2-0.8 0.1-2.2 0.6-3 1.1-0.8 0.4-2.6 1.2-4 1.6-1.4 0.4-3.3 0.3-4.2-0.2-1-0.5-1.8-1.8-1.8-2.9 0-1.1 0.9-3.8 4-10l-4.5-3.5c-2.9-2.3-4.5-4.3-4.5-5.8 0-1.2 0.5-2.8 1.2-3.5 0.7-0.7 3.9-1.2 8-1.2 5.1 0 6.8-0.3 6.7-1.4-0.1-0.7 0.9-2.5 2.1-4 1.3-1.5 3-2.6 3.8-2.4zm-12.8 14.3c0 0.3 0.7 0.7 1.5 1 0.8 0.3 1.5 0 1.5-0.5 0-0.5-0.7-1-1.5-1-0.8 0-1.5 0.2-1.5 0.5zm6.7 2.7c-0.3 0.7 0.5 2.5 1.9 4 1.3 1.6 2.7 2.8 3.2 2.8 0.4 0 1.3-0.4 2.1-0.8 1-0.5 1.1-1.4 0.4-3.7-0.8-2.3-1.6-3.1-4-3.3-1.8-0.2-3.3 0.3-3.6 1zm14-0.7c0.1 0 0 0.8-0.3 1.7-0.4 1.7-0.2 1.7 2.1 0.3 1.4-0.8 2.4-1.6 2.3-1.8-0.1-0.1-1.1-0.3-2.2-0.3-1.1 0-2 0-1.9 0.1zm177.2 0.5c0.3 0 1.6 0.7 2.9 1.5 1.2 0.8 2.2 2.2 2.2 3 0 1 1.1 1.6 3.2 1.7 2.5 0.2 3.5 0.9 4.3 3 0.9 2.3 0.6 3.1-1.5 5.3-1.4 1.4-4.2 3-6.2 3.5-2.1 0.6-4.7 0.8-5.8 0.5-1.1-0.3-2.7-2.1-3.5-4.3-0.9-2-1.6-5.1-1.6-6.9-0.1-2.3 0.6-3.7 2.7-5.2 1.5-1.2 3-2.1 3.3-2.1zm-196.4 10c-0.3 0.5 0 1 0.5 1 0.6 0 1.2-0.5 1.4-1 0.2-0.5 0-1-0.5-1-0.4 0-1 0.5-1.4 1zm352.3 9c2 0 4.3 0.9 6.2 2.5 2.1 1.8 3.1 3.6 3.5 6.5 0.3 2.2 0.9 4.2 1.5 4.5 0.6 0.3 1.8-0.2 2.8-1 0.9-0.8 3.2-1.5 5-1.5 2.5 0 3.7 0.7 5.2 3 1.1 1.7 2 4.5 2 6.3 0 2.4-0.9 4.1-3.7 6.9-2.1 2-6 4.4-8.8 5.3-2.7 0.9-7.2 1.9-10 2.2-2.8 0.3-6 0-7.2-0.6-1.6-0.8-2.9-3.1-4.4-7.9-1.1-3.7-2.3-8.3-2.6-10.2-0.2-1.9 0-5.4 0.6-7.8 0.7-2.6 2.1-4.9 3.9-6.2 1.5-1.1 4.2-2 6-2zm-152.6 2.2c1.8 0.9 1.9 2 1.4 15.7-0.3 8.4-1.3 18.2-2.4 23.1-1.6 7.7-2.1 8.6-4.7 9.8-2.5 1.2-3.2 1.2-4.2 0-0.7-0.7-1.3-2.4-1.4-3.8-0.1-1.4 0.6-5.9 1.4-10 0.9-4.1 1.7-12.7 1.8-19 0.1-6.3 0.7-12.3 1.3-13.3 0.5-1 1.9-2.2 3-2.6 1.1-0.5 2.7-0.4 3.8 0.1z"/>
	<path id="Preencher com Cor Sólida 4" fill-rule="evenodd" class="s4" d="m159 59.6c3.7 0.3 5.2 1.1 8 4.2 1.9 2.1 3.9 4.6 4.5 5.6 0.9 1.6 1.3 1.3 4-2.2 1.7-2.2 4.2-4.7 5.8-5.6 1.5-0.9 4-1.6 5.7-1.6 2.3 0 3.7 0.9 6 3.7 1.7 2.1 3 4.4 3 5 0 0.7 0.3 1.4 0.8 1.5 0.4 0.2 1.7 2.3 2.9 4.8 1.2 2.5 3.3 7 4.7 10 1.4 3 3.2 7.5 3.9 10 0.9 2.8 1.1 5.3 0.5 6.7-0.6 1.6-1.6 2.3-3.5 2.3-1.6-0.1-3.3-0.8-4-1.8-0.7-0.9-1.3-2.5-1.3-3.5 0-0.9-1.4-4.5-3-8-1.7-3.4-3-6.8-3-7.5 0-0.6-0.4-1.2-1-1.2-0.6 0-1-0.9-1-2 0-1.1-0.4-2-1-2-0.6 0-1-0.7-1-1.5 0-0.8-0.7-2.6-1.5-4-0.8-1.4-2-2.5-2.6-2.5-0.6 0-1.6 0.6-2.3 1.2-0.7 0.7-2.1 3.5-3.1 6.3-0.9 2.7-2 9.3-3 24l-3.8 0.2c-3.6 0.3-3.7 0.2-4.2-3.5-0.3-2-0.9-6.1-1.3-9.1-0.4-2.9-1-5.5-1.4-5.7-0.5-0.2-0.8-1.2-0.8-2.2 0-0.9-0.9-3.7-2.1-6.2-1.2-2.5-2.8-5.1-3.6-5.8-0.7-0.6-2.2-1.2-3.3-1.2-1.1 0-2.6 0.4-3.3 1-0.6 0.5-2.7 2.1-4.5 3.5-3.1 2.4-3.2 2.7-3.2 10 0 4.1 0.6 10.7 1.3 14.5 0.9 5.2 0.9 7.5 0.1 8.8-0.6 0.9-2.4 1.8-4 2-2.4 0.3-3.1-0.1-4.1-2.5-0.7-1.5-1.5-10.5-1.9-19.8-0.4-9.3-0.5-18-0.3-19.3 0.4-1.8 1.1-2.2 4.2-2.2 2 0 4.9-0.8 6.4-1.9 1.6-1 3.7-2.1 4.8-2.4 1.1-0.3 4-0.4 6.5-0.1zm103 2.1c2.1 0.3 4.8 1.8 6.6 3.7 1.8 1.7 3.8 4.3 5.9 8.5l3.2-4.4c1.8-2.5 4.9-5.3 6.9-6.2 3.4-1.7 3.7-1.7 7.1 0.2 2.4 1.3 4.5 3.7 6.2 7 1.4 2.8 2.8 5.2 3.1 5.5 0.3 0.3 1 1.6 1.7 3 0.6 1.4 2.5 5.4 4.1 9 1.7 3.6 3.3 8.1 3.7 10 0.4 1.9 0.5 4.4 0.1 5.5-0.3 1.1-1.4 2.3-2.6 2.8-1.4 0.5-2.6 0.1-4-1.3-1.1-1.1-2-2.9-2-4 0-1.1-0.9-3.9-2-6.3-1.1-2.3-2-4.8-2-5.5 0-0.6-0.3-1.2-0.8-1.2-0.4 0-1.3-1.2-2-2.8-0.7-1.5-1.2-3.3-1.2-4 0-0.6-0.4-1.2-1-1.2-0.6 0-1-0.9-1-2 0-1.1-0.4-2-1-2-0.6 0-1.2-0.9-1.5-2-0.3-1.1-1.1-2-1.8-2-0.6 0-2.2 1.7-3.3 3.7-1.2 2.1-2.7 6.7-3.3 10.3-0.6 3.6-1.1 9.1-1.1 18h-7.5l-1.3-7.7c-0.7-4.3-1.8-9.4-2.3-11.3-0.6-1.9-2-5.6-3.2-8.2-1.2-2.6-3.2-5.3-4.5-6-1.8-1.1-2.7-1.1-5 0.2-1.5 0.8-4 2.6-8.3 6.5l0.5 10.5c0.3 5.8 0.8 12.6 1.1 15.2 0.4 4.2 0.2 5-1.8 6.3-1.2 0.8-3 1.3-4 1-1-0.3-2.1-2.1-2.6-4.3-0.5-2-1.3-10.7-1.7-19.2-0.4-8.5-0.4-16.7 0-18.3 0.5-2.3 1.1-2.7 4.3-2.7 2.1 0 5.1-0.8 6.8-1.9 1.7-1 4.1-2.1 5.5-2.4 1.4-0.3 4.1-0.3 6 0zm-201.3 34.5c2.7 0.6 5.4 1.5 6 2.2 0.7 0.6 1.9 3.6 2.7 6.6 0.8 3 1.3 6.4 1.1 7.5-0.2 1.1-1.2 5-2.2 8.6-1 3.6-2.7 7.6-3.8 8.8-1.8 2.1-2.6 2.2-9.5 1.6-4.1-0.4-8.4-1.3-9.5-2.1-1.1-0.8-2.8-1.4-3.7-1.4-1 0-3.4-1.3-5.3-3-3.3-2.8-3.5-3.4-3.5-8.8 0-3.1 0.6-6.5 1.3-7.5 0.7-0.9 2.6-1.7 4.2-1.7 1.7 0 4 0.7 5.3 1.5 1.5 1.1 2.6 1.2 3.7 0.5 0.8-0.5 1.4-1.3 1.3-1.8-0.1-0.4 0.2-1.8 0.6-3.2 0.5-1.4 2.1-3.9 3.7-5.6 2.8-3 3.1-3.1 7.6-2.2zm311 14.8c0.2 0 1 0.7 1.8 1.5 0.8 0.8 2 3.3 3.5 9.5l8.3 0.2c7.7 0.3 8.2 0.4 8.5 2.5 0.1 1.5-0.9 3.4-3 5.4-1.8 1.6-4.1 3.2-5 3.5-1 0.2-1.8 0.8-1.8 1.4 0 0.6-0.8 1-1.7 1-1.6 0-1.7 0.6-0.9 5.3 0.5 2.8 0.6 6 0.3 6.9-0.4 1-1.3 1.8-1.9 1.8-0.7 0-3.2-1.5-5.5-3.5-3.4-2.8-4.9-3.4-7-2.9-1.6 0.3-3.7 1-4.8 1.6-1.1 0.5-2.9 0.8-4 0.6-1.1-0.2-2.1-1.2-2.3-2.3-0.2-1.1 0.6-3.9 3.8-10.5l-3.7-3.5c-2.1-1.9-4.1-3.5-4.5-3.5-0.5 0-1-0.7-1.3-1.5-0.3-0.8 0.3-2.3 1.2-3.3 1.2-1.3 3.3-1.7 7.9-1.7 5.7 0 6.5-0.2 7.6-2.5 0.7-1.4 2-3.3 2.8-4.2 0.8-1 1.5-1.8 1.7-1.8zm-11.8 13.6c0 0.2 0.8 1.1 1.6 1.9 0.8 0.8 1.7 1.2 2 0.7 0.3-0.4 0.5-1 0.4-1.3-0.1-0.4-1-0.9-2.1-1.2-1.1-0.3-2-0.3-1.9-0.1zm7.1 2.6c-0.8 0.7-1.3 1.8-1.2 2.5 0.1 0.7 1.3 2.4 2.7 3.8 2.1 2.1 2.8 2.3 4 1.2 0.9-0.6 1.6-2.3 1.6-3.7-0.1-1.4-0.6-3.1-1.3-3.8-0.7-0.7-2-1.2-2.8-1.2-0.9 0-2.2 0.5-3 1.2zm13 1.3c0 0.8 0.6 1.5 1.3 1.5 0.6 0 2.1-0.7 3.2-1.5 1.9-1.5 1.9-1.5-1.2-1.5-2.3 0-3.3 0.5-3.3 1.5zm-19.4 9c-0.3 0.8-0.6 1.6-0.6 1.7 0 0.2 1.2 0.2 2.5 0 1.7-0.1 2.3-0.7 2-1.7-0.3-0.8-1.1-1.5-1.9-1.5-0.8 0-1.7 0.7-2 1.5z"/>
	<path id="Preencher com Cor Sólida 3" fill-rule="evenodd" class="s1" d="m123.4 22c1.1-0.1 2.6 0.5 3.2 1.2 0.6 0.7 1.6 5.1 2.3 9.8 0.6 4.7 1.7 11.6 2.4 15.3 1.1 6.5 1.1 7-0.8 8.3-1.1 0.8-2.4 1.4-3 1.4-0.6 0-1.8-0.5-2.7-1.2-1.4-1-2.3-4.9-3.9-16.8-1.5-11.9-1.8-15.8-0.9-16.8 0.7-0.6 2.2-1.2 3.4-1.2zm-40.9 14.1c1.1 0 4.2 0.5 7 1.3 2.7 0.7 6.6 2.1 8.5 3.1 1.9 0.9 5.2 3.6 7.3 5.9 2.1 2.2 4.7 5.8 5.8 7.8 1 2.1 2.6 6.4 3.4 9.5 0.8 3.2 1.5 7.8 1.5 10.3 0 2.5-0.7 7.2-2.8 16.5l3.9 3.5c2.1 1.9 3.9 4 3.9 4.5 0 0.5-0.7 2-1.5 3.2-0.8 1.3-2.1 2.3-2.8 2.3-0.6 0-2.2-0.9-3.5-2-1.2-1.1-2.8-2-3.5-2-0.6 0-2.1 1.4-3.2 3.2-1.1 1.8-3.6 4.9-5.5 6.8-1.9 2-4.9 3.9-6.5 4.3-2.1 0.5-3.7 0.3-5.5-0.9-1.4-1-2.8-2.3-3.3-3.1-0.4-0.7-2.2-2-4-3-1.7-0.9-5.1-3.5-7.5-5.7-2.4-2.3-5.6-6.8-7.2-10.1-1.5-3.3-3.3-8.7-3.9-12-0.6-3.3-1.1-9.8-1.1-14.5 0.1-5.3 0.7-10.4 1.8-13.5 0.9-2.8 2.8-6.5 4.2-8.2 1.4-1.7 4.1-3.8 6-4.6 1.9-0.9 4.2-1.8 5-2.1 0.8-0.2 2.4-0.5 3.5-0.5zm-4.5 10.7c-2.8 1.6-3.8 3-5.2 7.3-0.9 3-1.7 8.5-1.7 12.4 0 3.8 0.6 9.7 1.3 13 0.8 3.3 2.2 7.3 3 9 0.9 1.7 2.9 4.5 4.6 6.2 1.6 1.8 4.2 3.6 5.7 3.9 1.6 0.3 4.4 1.2 6.3 2 3.2 1.4 3.6 1.3 5.5-0.5 1.1-1 2.7-3 3.5-4.4 1.4-2.4 1.3-2.7-3.3-7.1-2.6-2.5-4.7-5.3-4.7-6.1 0-0.8 0.7-2.2 1.6-3 0.8-0.8 2.2-1.5 3-1.5 0.8 0 2.9 1.2 4.6 2.6l3.3 2.7c1.2-5.3 1.3-9.7 0.9-13.3q-0.6-6.5-3.2-11c-1.4-2.5-3.9-5.8-5.6-7.3-1.7-1.5-4.3-3.4-5.9-4.2-1.5-0.8-4.4-1.7-6.5-2.1-2.6-0.3-4.7 0.1-7.2 1.4zm264 6.9c1.9 0.3 4.2 0.9 5 1.3 0.8 0.4 2.9 2.3 4.6 4.1 1.7 1.9 3.8 5.9 4.7 9.1 0.9 3.2 1.7 8.2 1.7 11 0 2.9-0.8 8.5-1.8 12.3-0.9 3.8-3 9.1-4.5 11.7-1.9 3.3-3.5 5-5.5 5.4-1.5 0.4-5.6 0.4-9.2 0-3.6-0.3-7.9-1.4-9.5-2.4-1.6-1-3.9-3.1-5-4.8-1.1-1.6-2.7-5.6-3.4-8.9-1.1-4.9-1.1-7.3-0.1-13 0.7-3.8 2.5-9.7 4-13 1.6-3.3 3.9-7 5.2-8.2 1.3-1.3 4.1-3 6.3-3.8 2.3-0.8 5.5-1.2 7.5-0.8zm-4.1 9.5c-1.3 0.5-3.1 1.7-4 2.6-0.8 0.9-2.4 3.3-3.4 5.2-1.1 2.1-2 6.5-2.3 11-0.3 4.1-0.2 8.6 0.1 10 0.3 1.4 1.8 3.8 3.4 5.3 2.4 2.4 3.5 2.8 7.3 2.5 4.1-0.3 4.7-0.6 6.5-4.3 1.4-2.9 2.1-6.6 2.3-13 0.2-5.6-0.1-10.6-1-13.4-0.9-3-2.1-4.8-3.9-5.6-1.8-0.9-3.4-1-5-0.3zm-164 56c0.8 0.2 2.1 2.7 3 5.6 1.5 5 1.8 5.3 4.8 5.2 1.8 0 4.2-0.6 5.2-1.3 1.6-1 2.2-0.9 3.5 0.3 1.2 1.2 1.5 3.4 1.3 9.5-0.2 7.3-0.4 8-2.2 8-1.7 0-2.1-0.8-2.5-6-0.4-5-0.8-6-2.5-6.3-1.1-0.2-2.9-0.1-4 0.2-1.7 0.4-2 1.4-2 6.8 0 5.6-0.2 6.3-2 6.3-1.7 0-2.1-0.8-2.5-5.5-0.5-5-0.7-5.5-3-5.8-1.4-0.1-3.1 0.3-3.8 1-0.7 0.7-1.3 2.1-1.2 3 0 1-1.4 3.1-3 4.8-2.3 2.3-3.9 3-6.8 3-2.8-0.1-4.3-0.7-5.9-2.8-1.8-2.1-2.3-3.9-2.3-8.7 0-3.3 0.4-6.6 0.8-7.3 0.4-0.8 1.6-1.2 2.7-1 1.7 0.3 2 1.2 2.2 7.1 0.2 4.9 0.7 6.9 1.8 7.4 1 0.5 2.2 0.1 3.3-1 1.2-1.2 1.7-3.4 1.7-7 0-4.8 0.2-5.2 2.5-5.5 1.4-0.2 3 0.3 3.7 1.2 0.8 0.9 2.2 1.4 3.3 1.1 1.1-0.3 2-1.1 2-1.8 0-0.6-0.4-2.8-0.9-4.7-0.6-2.4-0.6-3.9 0.2-4.8 0.6-0.7 1.8-1.1 2.6-1zm126.4 1c1.2 0.2 2.2 1 2.2 1.8 0 0.8-1 1.6-2.3 1.7-1.7 0.2-2.2-0.2-2.1-1.8 0-1.5 0.6-2 2.2-1.7zm23.8-0.2c1.1 0 2 0.6 2.2 1.2 0.2 0.7 0.2 4.5 0.1 8.3-0.1 3.8 0.2 7.8 0.7 8.7 0.5 1 2 1.8 3.4 1.8q2.5 0 1.9 1.2c-0.6 1-0.4 1 0.7 0.1 1.2-1 1-1.8-1.4-4.8-2.1-2.7-2.5-4-1.9-5.8 0.5-1.2 1.5-2.5 2.3-2.8 0.8-0.4 3.6-0.5 6.4-0.3 2.7 0.1 5.6 0.9 6.3 1.6 1 1 1 1.6 0 3.1-1.1 1.5-1.7 1.6-4.5 0.5-1.8-0.7-3.6-0.9-4-0.5-0.4 0.5 0.1 1.4 1.2 2 1.1 0.6 2.7 1.2 3.5 1.4 0.8 0.1 2.7 1.5 4.3 3 1.5 1.6 2.7 3.9 2.7 5.3 0 1.4-0.6 3.4-1.4 4.5-1.1 1.5-2.3 1.9-5.3 1.7-2.1-0.2-4.6-1.1-5.6-2-1-1-1.8-2.5-1.7-3.5 0-1.4-0.6-1.6-3.3-1-2.4 0.5-3.7 0.2-5.2-1.2-1.9-1.7-2.1-1.7-4 0.7-1.1 1.3-3.2 3-4.8 3.8-2.5 1.4-3.1 1.3-6.5-0.7-3.3-1.9-3.7-2.7-4-6.5-0.1-2.4 0.4-5.2 1.2-6.5 0.7-1.1 2.9-2.8 4.7-3.7 1.9-0.9 4.6-1.6 6.1-1.6 2.5 0 2.7-0.3 2.3-2.5-0.3-1.4 0-3.2 0.6-4 0.6-0.8 2-1.5 3-1.5zm-33.9 3c1 0 2 0.7 2.3 1.5 0.3 0.9-1 3-3 5-1.9 1.9-3.5 3.9-3.5 4.5 0 0.6 2.2 1.7 5 2.5 2.7 0.8 5.4 1.5 6 1.5 0.5 0 1-2 1-4.5 0-2.5 0.3-4.7 0.7-4.9 0.5-0.3 1.3-0.2 2 0.2 0.7 0.4 1.5 4.3 1.9 8.7 0.6 6.9 0.5 8.1-0.9 8.7-1 0.5-2.2 0.6-2.7 0.3-0.6-0.3-1-1.4-1-2.5 0-1.6-0.7-2-3-2-1.6 0-4.7-0.7-6.8-1.5-2-0.9-4.3-1.5-5-1.5-0.6 0-1.7 1.3-2.2 3-0.6 1.7-1.7 3-2.5 3-0.8 0-1.7-0.6-1.8-1.3-0.2-0.6-1.3-4.2-2.5-8-1.2-3.7-2.2-7.1-2.2-7.6 0-0.5 0.9-1.1 2-1.5 1.6-0.5 2.3 0.1 5 6.4l2.9-3.9c1.7-2.2 3.8-4.4 4.8-5 1-0.6 2.6-1.1 3.5-1.1zm-175.7 2.4c2.7 0.2 5.4 1 5.8 1.8 0.4 0.7 0.5 2.9 0.2 4.8-0.4 3-0.2 3.7 2 4.7 1.4 0.8 2.8 2.5 3.1 4 0.4 2.1 0 3.4-1.8 5.1-1.8 1.8-3.3 2.3-6.8 2.1-2.5-0.1-5.3 0.2-6.3 0.7-1.3 0.6-2.1 0.5-2.7-0.6-0.5-0.8-1.2-4-1.5-7-0.3-3-1.4-7-2.3-8.7-0.9-1.8-1.5-3.5-1.2-3.7 0.3-0.3 1.8-1.2 3.5-2.1 2.1-1.1 4.5-1.5 8-1.1zm21.5 2.7c0.8 0 3 0.5 4.7 1.2 1.8 0.6 3.7 2.2 4.3 3.4 0.5 1.3 1 3.8 1 5.5 0 1.8-0.8 4.3-1.8 5.5-0.9 1.2-3.3 2.6-5.2 3.1-2.6 0.7-4.4 0.6-6.8-0.4-1.7-0.8-3.7-2.3-4.2-3.4-0.6-1.1-1-3-1-4.3 0-1.2-0.5-2.8-1.2-3.5-1.1-1-1-1.6 0.5-3 1-0.9 3.2-2.2 5-2.9 1.8-0.6 3.9-1.2 4.7-1.2zm74 0.1c1.9 0 4.3 0.2 5.2 0.4 1.4 0.3 1.8 1.5 1.8 5.6 0 2.9 0.4 6 0.9 6.8 0.5 0.9 1.1 1.1 1.4 0.5 0.3-0.6 0.9-3.6 1.4-6.9 0.4-3.2 1.1-6 1.5-6.2 0.5-0.2 1.8-0.1 3 0.2 2.2 0.6 2.3 1 1.5 6.5-0.6 5-0.4 6.2 1 7.5 1.7 1.5 1.9 1.5 3.6-0.7 1.2-1.6 1.8-4.1 1.7-7.7 0-4.9 0.1-5.2 2.5-5.2 1.4 0 2.8 0.6 3.2 1.2 0.4 0.7 0.6 3.1 0.4 5.3-0.1 2.2-0.9 5.3-1.6 7-0.8 1.7-2.5 3.6-3.7 4.3-1.4 0.8-3.7 1.2-5.8 0.8-1.9-0.3-5-0.9-10.2-2.1l0.4 6c0.3 5.6 0.1 6-2 6.2-1.8 0.2-2.2-0.2-2.2-2.2 0-1.4-0.2-2.9-0.5-3.5-0.3-0.6-0.5-1.4-0.5-2 0-0.6-1-0.7-2.3-0.4-1.2 0.4-3 0.4-4 0-0.9-0.3-1.5-1.2-1.2-1.9 0.3-0.6 1.9-1.8 3.5-2.5 2.1-0.8 3-1.9 3.1-5.7l-2.3 2.2c-1.3 1.3-3.9 2.6-5.8 3-2.5 0.4-4.3 0.1-6.3-1-2-1.3-2.7-2.5-2.7-4.7 0-1.9 0.9-3.9 2.5-5.5 1.4-1.4 4-3.2 5.7-4 1.8-0.8 4.9-1.4 6.8-1.3zm-99.6 2c-0.4 0.7-0.3 2.1 0 3 0.3 1 1.2 1.8 2 1.8 0.8 0 2.2-0.8 3.1-1.8 1.6-1.6 1.6-1.8-0.1-3-1.1-0.7-2.5-1.2-3.2-1.2-0.7 0-1.5 0.6-1.8 1.2zm142.6-0.2c3.8-0.1 4.7 0.3 6 2.5 1.3 2.3 1.3 2.7 0 4-0.8 0.8-3.3 1.8-5.5 2.1-2.2 0.3-4.7 0.8-5.5 1-1.2 0.3-1.2 0.8 0.5 2.5 1.2 1.2 2.8 1.9 4 1.6 1.1-0.3 3.5-1 5.2-1.6 2.2-0.7 3.5-0.8 3.8-0.1 0.3 0.6-0.7 1.7-2.3 2.6-1.5 0.9-4.7 1.6-7.2 1.5-2.5 0-5.1-0.6-5.9-1.3-0.8-0.7-2.2-2.6-5-7.3l3.7-3.8c3.1-3.2 4.2-3.7 8.2-3.7zm-120 4.2c-0.8 0.7-1.3 2.5-1.2 4 0.1 1.8 1 3.2 2.6 4 2.1 1.1 2.9 1 5-0.5 1.4-0.9 2.6-2.5 2.6-3.5-0.1-0.9-1.1-2.5-2.3-3.5-1.2-1-2.9-1.7-3.8-1.7-0.8 0-2.1 0.5-2.9 1.2zm70.2 0.6c-1.9 1-3.2 2.3-3 3.2 0.2 0.8 1.4 1.6 2.8 1.8 1.6 0.2 3.3-0.6 4.8-2 1.2-1.3 2.2-2.9 2.2-3.6 0-0.6-0.8-1.2-1.8-1.2-0.9 0-3.2 0.8-5 1.8zm45.3-1.2c-0.4 0.4-0.8 1.1-0.7 1.6 0.1 0.4 1.6 0.7 3.2 0.5 1.7-0.1 3.1-0.6 3.1-1.2 0-0.6-1.1-1.1-2.4-1.3-1.2-0.2-2.7 0-3.2 0.4zm64.5 1.6c-0.8 0.7-1.3 2.2-1.2 3.5 0.1 1.3 1 2.5 1.9 2.8 1.1 0.3 2.7-0.4 4.1-1.7 1.2-1.3 2.2-3.1 2.2-4.1 0-1.2-0.8-1.7-2.8-1.7-1.5 0-3.4 0.5-4.2 1.2zm-201 5.8c0 1.1 0.7 2.2 1.5 2.5 0.8 0.3 2.8 0.5 4.5 0.5 2.3 0 3-0.4 3-2 0-1.1-0.7-2.2-1.5-2.5-0.8-0.3-2.9-0.5-4.5-0.5-2.3 0-3 0.4-3 2zm226.1 3.4c-0.1 1 0.7 1.6 1.9 1.6 1.1 0 1.9-0.6 1.7-1.3-0.2-0.6-1.1-1.3-1.9-1.5-0.9-0.2-1.7 0.3-1.7 1.2z"/>
	<path id="Preencher com Cor Sólida 2" fill-rule="evenodd" class="s0" d="m117.7 10.9c-2.1 1.3-4.9 3.9-6.3 5.8-2.2 3-2.5 4.3-2.2 9.7 0.2 3.4 0.2 6.3 0.1 6.3-0.2 0-1.5-0.9-3-1.9-1.5-1-5.4-2.8-8.5-4-4.1-1.5-8-2.1-13.5-2.1-4.3 0-9.2 0.5-11 1.2-2.8 1.1-3.7 1-6-0.4-1.5-0.9-5.3-1.9-8.3-2.3-5-0.6-5.6-1-7.2-4.1-1-1.9-3-4.1-4.5-4.9-1.5-0.7-3.9-1.5-5.3-1.6-1.4-0.1-3.5-0.2-4.7-0.1-1.2 0.1-3.7 1.7-5.5 3.5-2.4 2.4-4.5 3.5-7.8 4-2.5 0.3-6.1 1.5-8 2.5-1.9 1-4.5 3.4-5.8 5.2-1.4 2.2-2.2 4.9-2.2 7.5 0 2.2 0.9 5.4 2 7.2 1.1 1.8 2.6 3.5 3.3 3.8 0.9 0.3 1.1 2.5 0.8 7.2-0.3 6.1-0.1 7.1 2.3 10 1.7 2.1 4.1 3.6 6.6 4.3 2.7 0.6 5.6 0.6 8.8-0.1 4.3-0.9 4.9-0.8 7.1 1.3 1.6 1.6 3.9 2.4 7.7 2.8 4.3 0.4 5.4 0.9 5.8 2.5 0.3 1.1 0.9 4.3 1.3 7.2 0.7 4.7 0.6 5.3-0.9 5.3-1 0-3.9 2-6.5 4.5-2.6 2.5-5.6 4.5-6.5 4.5-1 0-3.5 0.8-5.5 1.8-2.1 1.1-5 3.7-6.4 5.8-1.4 2.1-3.1 5.4-3.6 7.4-0.6 1.9-0.7 5.3-0.3 7.5 0.3 2.2 1.5 5.3 2.6 7 1.1 1.6 2.8 3.8 3.9 4.7 1.1 1 3.8 2.9 6 4.2 2.2 1.4 6.7 3.4 10 4.5 3.4 1.1 8.7 2 12.3 2 3.6 0 7.5-0.6 9.2-1.4 1.7-0.9 3.9-2.8 5.1-4.3 1.1-1.5 2.9-5.2 4-8.2 1.1-3.1 2.2-6.1 2.5-6.8 0.3-0.8 2.4 0.1 6.4 2.8 3.6 2.3 6 4.7 6 5.7 0 1 0.9 3.6 2 5.8 1.2 2.2 2.5 6.9 3.1 10.5 0.6 3.5 1.7 7.5 2.5 8.7 0.8 1.2 2.7 2.9 4.2 3.6 1.5 0.8 6.1 1.9 10.2 2.5 4.1 0.6 10.7 1.4 14.5 1.7 3.9 0.4 11.5 0.1 17-0.5 5.5-0.7 13.2-2.2 17-3.5 6.5-2.1 7.2-2.1 10-0.7 1.7 0.9 5.7 1.8 9 2 4.1 0.3 7.4-0.1 10.3-1.2 3.8-1.5 4.7-1.5 8.7-0.1 2.5 0.8 5.4 1.5 6.5 1.5 1.4 0 2.6 1.3 4 4.2 1 2.3 2.5 5 3.2 5.8 0.7 0.9 2.3 2.2 3.6 2.8 1.4 0.7 3.1 0.8 4.5 0.3 1.2-0.5 3-2.5 4-4.5 0.9-2 1.7-4.8 1.7-6.1v-2.5c16.9-0.1 24.3-0.7 28-1.6 3.6-0.8 8.4-2.6 10.8-4l4.2-2.4c6.6 3 11.9 4.7 16 5.9 4.1 1.1 11.3 2.5 16 3 4.7 0.6 14.5 1.1 21.8 1.1 7.3 0 16.7-0.5 21-1.1 4.2-0.6 11.3-2.2 15.7-3.6l8-2.5c3.1 3.3 5.6 4.6 7.5 5 2.4 0.6 4.8 0.5 7.5-0.4 2.2-0.8 5-2.6 6.2-4.2 1.2-1.5 2.5-4 2.8-5.5 0.3-1.5 0.3-3.8 0-5-0.4-1.8 0.6-3.1 4.6-6.2 2.8-2.2 5.8-5.4 6.7-7 0.8-1.7 1.5-4.6 1.5-6.5 0.1-2-0.9-4.9-2.1-6.8-1.2-1.8-3.5-3.9-5.2-4.7-1.6-0.9-5.1-1.8-7.7-2.2-2.6-0.3-5.3-1.3-6-2.2-0.7-0.9-1.3-2.1-1.3-2.6 0-0.6 2.1-1.3 4.8-1.7 2.6-0.3 7.2-1.5 10.2-2.7 3-1.1 7.7-3.6 10.3-5.6 2.6-1.9 5.6-5.3 6.7-7.5 1.2-2.4 2-6 2-9 0-2.9-0.8-6.6-1.8-8.8-1.1-2.1-3.6-5.2-5.5-7-2.6-2.3-4.6-3.2-6.9-3.2-2.6 0-3.9-0.7-6-3.5-1.5-1.9-4.6-4.4-6.8-5.5-2.3-1.2-6-2.1-8.7-2.1-2.6 0-6.4 0.6-8.3 1.4-3.5 1.4-3.5 1.4-8-3.2-2.9-2.9-6.5-5.3-9.5-6.4-2.8-1-6.6-1.8-8.5-1.8-1.9 0-6.2 0.9-9.5 1.9-3.3 1-7.8 2.8-10 3.9-2.2 1.2-5.6 3.8-7.6 5.9-2 2.1-4.9 6.3-6.3 9.4l-2.7 5.5c-8-8.7-11.5-12-12.9-12.9-1.6-1.1-4.6-1.7-8.5-1.8-4.1-0.1-7.4 0.6-10.5 2-4.4 2.1-4.5 2.1-7 0.2-1.4-1-4.7-2.5-7.5-3.1-3.8-0.9-6.1-1-9.7-0.1-2.6 0.6-5.2 1.2-5.8 1.2-0.5 0-1.2-1.6-1.5-3.5-0.3-2-1.7-5-3.2-6.7-1.5-1.7-4.1-3.8-5.8-4.5-1.6-0.8-4.6-2.4-6.5-3.6-2.4-1.4-4.9-2.1-8-2-2.5 0.1-5.8 1-7.5 2-1.6 1-4 3.8-5.3 6.3-1.8 3.6-2.2 5.5-1.8 9.5 0.3 2.7 0.9 6.3 1.2 8 0.4 1.6 0.4 4.2 0 5.7l-0.6 2.8c-6.6-8-10.7-11.9-13.5-13.7-3.8-2.6-6-3.4-9.2-3.4-2.4 0-6.4 1-9 2.2l-4.8 2.1c-8.9-4.2-11.6-4.7-18-4.7h-7.9c-2.7-17.3-4.1-22.6-5.7-25.5-1.7-3.1-4.2-5.6-8.4-8.2-3.3-2.1-7.6-4.1-9.5-4.4-2.5-0.4-4.5 0.1-7.3 1.8zm2.5 12.3c-0.9 0.9-1 3.5-0.3 9.3 0.5 4.4 1.1 8.9 1.4 10 0.3 1.1 0.6 4 0.8 6.5 0.1 2.5 1 5.3 1.8 6.4 0.9 1 3.2 2.6 5.1 3.6 3.3 1.8 3.7 1.8 6.3 0.2 1.5-0.9 2.4-2.1 2-2.5-0.5-0.5-1.3-3.4-2-6.5-0.6-3.2-1.2-7.3-1.2-9.2-0.1-1.9-0.6-5.2-1.1-7.3-0.6-2-1.8-4.5-2.8-5.5-0.9-1-2.2-2.7-2.8-3.8-0.6-1-2.2-2-3.6-2.2-1.4-0.2-3 0.3-3.6 1zm-83.7 5c-3.6 5.9-3.5 7.2-1.8 5.8 1.6-1.3 3.7-5.3 4.9-3.5 0.8 1.1 1.3 2.7 1.2 3.5-0.2 0.8-1.3 1.6-2.6 1.7-1.5 0.2-2.4-0.4-2.8-2-0.4-1.4-0.9-1.8-1.3-1-0.4 1-1.9 1.1-5.4 0.4-3.4-0.6-5.6-0.4-7.7 0.5-1.7 0.8-3 1.9-3 2.4 0 0.5 2 2.9 4.5 5.2 2.5 2.4 4.6 5 4.6 5.8 0 0.8-0.7 2.8-1.6 4.5-0.8 1.6-1.5 3.8-1.5 4.7 0 1.2 0.8 1.8 2.3 1.8 1.2 0 3.9-0.6 6-1.5 2-0.8 4.2-1.5 4.7-1.5 0.6 0 2.7 1.6 4.8 3.5 2 1.9 4.3 3.4 5 3.5 0.6 0 1.3-0.6 1.5-1.3 0.2-0.6 0-3.5-0.4-6.2-0.5-2.8-0.7-5-0.6-5.1 0.1 0 2.6-1.6 5.6-3.5 3-1.9 6.1-4.4 7-5.7q1.6-2.3 0.6-3.2c-0.5-0.6-4.6-1.3-9-1.6l-8-0.6c-2.3-7.1-3.5-9.3-4-9.5-0.6-0.2-1.9 1.2-3 2.9zm-7.5 13.3c0.6 0.3 1.5-0.4 2-1.5 0.6-1.1 0.9-2.2 0.8-2.4-0.2-0.2-1.8-0.6-3.8-0.8-2.4-0.3-3.4 0-3.2 0.9 0.1 0.7 3.7 3.5 4.2 3.8zm45.5-3.2c-2.2 1.2-4.9 3.1-6 4.3-1.1 1.1-2.5 2.9-3.1 4-0.6 1-1.7 4.4-2.4 7.4-0.7 3.5-1 9.4-0.7 16 0.3 5.8 0.9 12.1 1.3 14 0.4 1.9 1 3.7 1.4 4 0.4 0.3 1.8 2.5 3 5 1.3 2.5 4.1 6.3 6.4 8.6 2.2 2.2 5.8 4.8 7.9 5.7 2 0.9 3.7 2.2 3.7 2.7 0 0.5 0.6 1.6 1.3 2.4 0.6 0.7 3.5 2.1 6.2 3.1 4.9 1.8 5.1 1.8 8.5-0.1 1.9-1.1 5.2-4.2 7.2-6.9l3.8-5c8.7 1.7 10.3 1.7 11.2 0.8 1-0.9 0.9-1.8-0.9-4.5-1.2-1.8-3.1-3.9-4.2-4.6-1.8-1-1.9-1.5-0.8-2.9 0.7-1 1.3-5.7 1.5-11.7 0.3-8.5 0-11.2-2-17-1.9-5.9-3.4-8.1-9.3-14-3.8-3.9-8.6-8-10.5-9-1.9-1.1-5.7-2.5-8.5-3.3-2.7-0.7-6.3-1.3-8-1.3-1.6 0-4.8 1-7 2.3zm-41.5 1.9c-0.8 0.7-1.3 1.7-1.2 2.3 0.1 0.5 1.5 2.3 3.2 4 2.6 2.6 3.3 2.8 5.2 1.9 1.8-0.9 2.2-1.9 1.9-4-0.2-1.6-0.9-3.5-1.5-4.2-0.6-0.7-2.2-1.3-3.6-1.2-1.5 0-3.2 0.5-4 1.2zm13.2 0.2c-0.2 0.6-0.1 1.9 0.2 2.8 0.6 1.7 0.9 1.6 4.1-0.5 2-1.2 3.3-2.4 2.9-2.7-0.3-0.3-2-0.5-3.7-0.6-1.7 0-3.3 0.4-3.5 1zm175.7 4.2c-0.8 1-1.3 2.9-1.3 4.3 0.1 1.4 0.8 3.9 1.6 5.6 1.1 2.5 1.9 3 4.8 3 1.9-0.1 4.7-0.9 6.3-1.8 1.5-0.9 2.7-2.5 2.7-3.5 0.1-0.9-0.5-2.2-1.2-2.9-0.8-0.8-1.8-0.9-2.8-0.3-0.8 0.6-1.8 1-2.2 1-0.5 0-1.1-1.2-1.4-2.8-0.3-1.5-1.1-3-1.7-3.4-0.7-0.4-1.7-0.8-2.3-0.8-0.7 0-1.8 0.7-2.5 1.6zm-194.3 5.9c-0.9 1.4-1.5 2.7-1.3 3 0.1 0.3 1.7 0 3.5-0.5 1.7-0.6 3.2-1.3 3.2-1.8 0-0.4-0.5-1.3-1.2-2-0.7-0.7-1.6-1.2-2-1.2-0.3 0-1.3 1.1-2.2 2.5zm54.6-0.8c-0.5 1-1.6 2.5-2.3 3.3-0.8 0.8-2 2.7-2.7 4.2-0.7 1.7-1.2 7-1.2 13 0 5.7 0.5 11.6 1 13.3 0.5 1.7 1.2 4.1 1.5 5.5 0.2 1.4 1.7 3.9 3.2 5.7 1.6 1.8 4 3.3 5.6 3.5 1.5 0.2 2.7 0.5 2.7 0.8 0 0.3 1.1 1.1 2.5 1.7 2.3 1.2 2.8 1 6-2.5 2-2 3.5-4 3.5-4.5 0-0.4-2.3-2.8-5.1-5.5-4.7-4.4-4.9-4.8-3.7-7.2 0.7-1.4 2.2-2.6 3.3-2.8 1.1-0.2 3.2 0.3 4.7 1 1.6 0.7 2.5 1.6 2.1 2-0.3 0.5 0.1 0.8 1 0.8 1.5 0 1.7-1.3 1.7-9 0-5.3-0.4-9-1-9-0.5 0-0.8-0.5-0.5-1 0.3-0.6-0.2-1.7-1-2.5-0.8-0.8-1.5-2-1.5-2.5 0-0.6-1.6-2.6-3.5-4.5-1.9-1.9-5-4-6.7-4.5-1.8-0.6-4.5-1-6-1-1.6 0-3.1 0.7-3.6 1.7zm256.8 3.4c-1.9 0.5-4.9 1.6-6.5 2.4-1.6 0.7-4.1 2.6-5.5 4.2-1.4 1.6-3.1 3.9-3.7 5.1-0.7 1.2-1.3 2.9-1.3 3.7 0 0.8-0.4 1.5-1 1.5-0.5 0-1.2 2.1-1.5 4.7-0.3 2.7-0.7 7.3-1.1 10.3-0.3 3.2-0.1 6.5 0.6 8 0.6 1.4 1.2 3.5 1.3 4.7 0.1 1.1 0.5 1.9 1 1.7 0.4-0.2 0.7 0.2 0.7 0.8-0.1 0.7 1.4 2.6 3.2 4.1 1.8 1.5 4.3 3 5.6 3.2 1.2 0.3 3.4 0.8 5 1.1 1.5 0.4 4.1 0.8 5.7 1 1.6 0.2 4.1-0.2 5.5-0.8 1.4-0.7 4.5-3.3 7.1-5.8 2.8-2.8 5.1-6.3 6.2-9.5 0.9-2.8 2-7.9 2.3-11.5 0.4-4.3 0.1-9.1-1-14.3-1.5-7.1-1.9-8-5.8-11.2-3-2.4-5.6-3.6-8.8-3.9-2.5-0.3-6.1-0.1-8 0.5zm-185.5 6.6c-1.6 0.3-4.2 1.4-5.7 2.4-1.6 1-4.4 1.9-6.3 1.9-3 0-3.6 0.4-4.1 2.7-0.3 1.6-0.3 9.8 0.1 18.3 0.4 8.5 1.1 17.2 1.6 19.2 0.7 2.8 1.4 3.8 2.9 3.8 1.1 0 2.6 0.9 3.3 2 0.6 1.1 2 2 3 2 0.9 0 1.9-0.6 2.1-1.3 0.2-0.6 0.2-2.8 0.1-4.7-0.1-1.9-0.5-8.5-0.9-14.5l-0.7-11c4.5-5 6.4-6.5 7.2-6.5 0.8 0 2.1-0.7 2.9-1.5 0.8-0.8 2-1.1 2.6-0.7 0.6 0.4 1.9 2.2 2.8 3.9 0.9 1.8 1.6 4.2 1.6 5.3 0 1.1 0.5 2.2 1 2.5 0.6 0.3 1 1.6 1 3 0 1.4 0.6 5.4 1.3 9 1.1 5.9 1.4 6.5 3.7 6.5 1.4 0 3 0.9 3.8 2 0.9 1.6 1.6 1.8 3.2 1 1.8-0.9 2-2.2 2.3-11.3 0.2-7.9 0.8-11.1 2.4-14.2 1.1-2.2 2.8-4.3 3.7-4.8 1.2-0.5 1.6-0.2 1.6 1.3 0 1.1 0.5 2 1 2 0.6 0 1 0.9 1 2 0 1.1 0.5 2 1 2 0.6 0 1 0.9 1 2 0 1.1 0.5 2 1 2 0.6 0 1 0.6 1 1.2 0 0.7 0.9 3.2 2 5.5 1.1 2.4 2 4.7 2 5.3 0 0.5 0.6 2.1 1.3 3.5 0.8 1.8 2 2.5 4 2.5 1.5 0 2.5 0.4 2.2 1-0.3 0.5 0.2 1.4 1 2 1 0.7 2 0.6 3.1-0.3 1.1-0.8 1.3-2.1 0.9-4.2-0.4-1.7-1.2-4.6-1.8-6.5-0.6-1.9-3.4-8-6.1-13.5-2.8-5.5-5.4-10.1-5.8-10.3-0.4-0.1-0.8-0.8-0.8-1.5 0-0.6-2-3.3-4.5-6-3.2-3.3-5.3-4.7-7.2-4.7-1.8-0.1-4.5 1.3-7.5 4-2.7 2.2-4.8 4.7-4.8 5.5 0 0.8-0.4 1.5-1 1.5-0.5 0-1.6-1.2-2.4-2.8-0.8-1.5-2.7-3.9-4.3-5.4-1.5-1.4-4.4-2.8-6.3-3.1-1.9-0.3-4.8-0.2-6.5 0zm101 2.9c-2.2 0.8-4.4 1.8-4.9 2.4-0.6 0.5-2.9 1-5.3 1-4.2 0-4.3 0.1-4.9 3.7-0.4 2.1-0.4 10.1 0 17.8 0.4 7.7 1.2 15.8 1.7 18 0.5 2.2 1.4 4.3 2.1 4.7 0.7 0.4 2.1 0.5 3.1 0.3 0.9-0.3 1.6 0 1.5 0.6-0.2 0.6 0.5 1.6 1.4 2.2 1.4 0.9 2.1 0.9 3.2-0.3 1.2-1.2 1.3-2.4 0.6-5.5-0.5-2.2-1-8.7-1.1-14.5-0.1-8.8 0.2-10.9 1.7-12.9 1.1-1.2 3.6-3.3 5.7-4.5 3.8-2.1 3.8-2.1 5.5-0.1 1 1.1 2.5 4.5 3.4 7.5 0.9 3 2.3 9 3 13.3 1.2 7 1.5 7.7 3.6 7.7 1.2 0 2.9 1 3.7 2.2 1.2 1.9 1.9 2.1 3.3 1.2 1.3-0.9 1.8-3.1 2.3-11 0.4-6.6 1.3-11.4 2.6-14.4 1.2-2.7 2.6-4.5 3.6-4.5 0.9 0 1.7 0.6 1.7 1.2 0 0.7 0.5 1.3 1 1.3 0.6 0 1 0.6 1 1.2 0 0.7 0.5 2.5 1.2 4 0.7 1.6 1.6 2.8 2.1 2.8 0.4 0 0.7 0.6 0.7 1.2 0 0.7 0.9 3.2 2 5.5 1.1 2.4 2 5 2 5.8 0 0.8 0.4 2.3 0.9 3.2 0.4 1 2.3 2.5 4 3.3 1.8 0.8 3.2 1.8 3.1 2.2 0 0.5 0.9 0.8 2 0.8 1.6 0 2.1-0.8 2.3-3.8 0.2-2-0.3-5.3-1.1-7.2-0.8-1.9-3.9-8.6-6.8-14.8-3-6.1-6-11.5-6.6-12-0.7-0.4-2-2-3-3.7-0.9-1.7-3.1-3.8-5-4.9-2.3-1.3-4.1-1.6-5.8-1.1-1.4 0.4-4.2 2.4-6.2 4.4-2.1 2-3.8 4.2-3.8 4.8 0 0.7-0.4 1.3-1 1.3-0.5 0-1.5-1-2.2-2.3-0.6-1.2-2.5-3.6-4.2-5.3-1.8-1.8-4.6-3.3-6.6-3.6-2-0.3-5.3 0-7.5 0.8zm120.5 1.3c-1.6 1.6-2.9 3.9-2.9 5-0.1 1.2-0.2 3.1-0.3 4.3-0.1 1.3 0.1 4.2 0.5 6.5 0.4 2.4 1.2 4.3 1.7 4.3 0.6 0 0.8 0.5 0.5 1-0.3 0.5 0.2 2.6 1 4.5 1 2.4 2.2 3.5 3.8 3.6 1.2 0.1 3.6 0.2 5.2 0.2 1.6 0 5.7-0.8 9-1.9 3.7-1.2 7.2-3.1 9.3-5.1 1.7-1.8 3.2-4.3 3.2-5.6 0-1.2-0.9-3.7-2-5.5-1.1-1.7-2.7-3.2-3.5-3.2-0.8 0-3.3 0.9-5.5 2-2.2 1.1-4.2 1.7-4.4 1.2-0.2-0.4-0.6-2.6-1-5-0.4-2.5-1.6-5.2-3.1-6.7-1.6-1.6-3.6-2.5-5.6-2.5-2.1 0-4 0.9-5.9 2.9zm-151.4-0.6c-1.6 1.2-2 3.4-2.7 16.3-0.4 8.2-1.3 16.5-1.8 18.4-0.6 1.9-1.1 5.4-1.1 7.7 0 2.9 0.5 4.5 1.5 4.8 0.8 0.3 2 0.3 2.5 0 0.6-0.3 1.3 0.4 1.8 1.6 0.4 1.3 1.4 1.9 2.6 1.7 1.5-0.2 2.4-1.9 3.7-7.3 0.9-3.8 2-9.5 2.4-12.5 0.4-3 0.9-6.2 1-7 0.2-0.8 0-5.3-0.4-10-0.4-6-1-8.4-1.9-8.3-0.6 0.2-1.2-0.7-1.2-2-0.1-1.2-0.8-2.7-1.8-3.4-0.9-0.7-1.9-1.3-2.2-1.3-0.3 0-1.4 0.6-2.4 1.3zm114.5 1.5c-1.3 1.1-2.3 2.7-2.2 3.6 0 0.9-0.2 1.6-0.6 1.6-0.5 0-0.9 0.6-1 1.2-0.2 0.7-0.6 5.1-1 9.6-0.5 4.6-0.5 8.6 0 8.8 0.4 0.2 0.7 1.2 0.7 2.1 0.1 1 1.6 3 3.5 4.5 2.5 2 4.1 2.6 5.5 2 1.2-0.4 2.6-2.5 3.5-5.5 0.8-2.6 1.5-8.4 1.5-13 0-5.1-0.5-9.6-1.5-12-0.8-2-1.9-3.7-2.5-3.7-0.5 0-1.6-0.2-2.3-0.5-0.7-0.3-2.3 0.3-3.6 1.3zm-282.1 32.9c-0.8 0.4-2.1 1.2-2.7 2-0.7 0.7-1.7 2.4-2.3 3.8-0.5 1.4-1 3.8-1 5.5q0 3-1.5 3c-0.8 0-2.2-0.7-3-1.5-0.8-0.8-2.7-1.8-4.2-2.1-2.2-0.5-3.3-0.1-5 2-1.5 1.7-2.3 3.9-2.3 6.3 0 2.8 0.7 4.5 2.7 6.5 1.6 1.5 3.4 2.8 4.1 2.8 0.6 0 1.2 0.5 1.2 1 0 0.5 1 1 2.3 1 1.2 0 2.7 0.4 3.2 0.9 0.6 0.4 3.9 1.1 7.5 1.4 3.6 0.3 7 0.3 7.5-0.1 0.6-0.4 1.6-1.7 2.3-2.9 0.6-1.3 1.2-3.1 1.2-4 0-1 0.5-2.4 1.2-3.1 0.8-0.8 1.3-4.2 1.3-9.2 0-7.2-0.2-8.2-2.5-10.4-1.4-1.3-3.8-2.6-5.5-2.9-1.6-0.3-3.7-0.3-4.5 0zm312.6 18.1l-1.7 3.7c-12.1 0.1-14.1 0.5-15.5 1.9-1.8 1.8-1.7 2 3.6 6.8 4.9 4.4 5.4 5.1 4.4 7.1-0.6 1.2-1.7 3.4-2.3 4.9-0.8 2.2-0.8 3.2 0.2 4.3 0.6 0.9 2 1.6 3 1.5 0.9 0 1.8-0.4 2-0.9 0.1-0.4 2.2-1.1 4.7-1.5 4.2-0.6 4.7-0.4 8.3 3.1 3.4 3.4 4 3.6 5.4 2.3 1.3-1.3 1.3-2.3 0.3-7-0.6-3-1-5.5-0.8-5.6 0.2 0 2.3-1.2 4.8-2.6 2.5-1.4 5.5-3.4 6.7-4.5 1.2-1 2.3-2.5 2.3-3.3 0.1-0.8-0.5-2-1.2-2.7-0.7-0.6-4.7-1.3-8.8-1.5-7-0.3-7.5-0.4-8.1-2.8-0.3-1.4-0.9-3.5-1.2-4.8-0.4-1.3-1.5-2.2-2.6-2.2-1.2 0-2.5 1.3-3.5 3.7zm1 3.5c-0.3 1-0.1 2 0.4 2.3 0.6 0.3 1.2 0.3 1.5 0 0.3-0.3 0.1-1.3-0.4-2.3-0.8-1.6-0.8-1.6-1.5 0zm-199.1 3.3c0 1.4 0.3 2.5 0.8 2.5 0.4 0 0.6 1.5 0.5 3.2-0.2 2.2-0.9 3.4-2 3.5-1 0.2-2.9-0.6-4.3-1.7-2-1.6-2.8-1.8-3.9-0.8-0.9 0.9-1.4 3.1-1.3 6.5 0.1 2.8-0.2 5.5-0.7 6-0.4 0.4-1.9 0.9-3.2 1-2.3 0.3-2.4 0.1-2.4-7.2 0-6.8-0.2-7.5-2-7.5-1.2 0-2.4 1-3 2.5-0.6 1.4-1 4.3-1 6.5 0 2.2 0.5 5 1.2 6.2 0.6 1.3 1.6 2.8 2.2 3.4 0.6 0.6 3.2 1.1 5.9 1.2 3.3 0.1 4.6-0.2 4.5-1.1-0.2-0.6 0.3-1.1 1-1 0.6 0.2 1-0.1 0.7-0.7-0.3-0.6 0.2-1.4 1-2 0.8-0.6 1.3-1.3 1-1.8-0.2-0.4 0.2-1.7 1-3q1.5-2.2 4.5-2.2c2.9 0 3 0.1 3 4.7-0.1 3.2 0.5 5.3 1.6 6.3 1.4 1.3 1.8 1.3 3.1-0.5 0.8-1.1 1.1-2.9 0.7-4-0.3-1.1-0.8-3.5-1-5.3-0.4-3.2-0.4-3.2 3.9-3.2h4.2c1.2 10.5 1.7 13.7 2 14 0.2 0.3 1.2-0.2 2-1 1.1-1.1 1.6-3.3 1.5-7.5 0-3.3-0.2-7-0.5-8.3-0.5-2.1-0.8-2.2-7.6-1.5-4.6 0.5-7 0.4-6.8-0.2 0.1-0.6-0.2-2.9-0.7-5.3-0.8-3.6-1.3-4.2-3.4-4.2-2 0-2.5 0.5-2.5 2.5zm16.1-0.5c-0.5 1.7-0.1 2 2.4 2 2.3 0 3-0.4 3-2 0-1.4-0.7-2-2.4-2-1.5 0-2.6 0.7-3 2zm111.5-0.1c-0.1 1.6 0.4 2 2.2 1.8 1.2-0.1 2.2-0.9 2.2-1.7 0-0.8-1-1.6-2.2-1.8-1.6-0.3-2.2 0.2-2.2 1.7zm23.4 0.3c-0.4 1.3-0.8 3.2-0.9 4.3-0.1 1.5-1.1 2.1-4.8 2.7-2.7 0.4-5.4 1.4-6.1 2-0.8 0.7-1.9 2.3-2.5 3.5-0.7 1.3-1.2 3.1-1.2 4 0 1 0.6 3.1 1.5 4.8 0.8 1.7 1.5 2.6 1.4 2 0-0.6 0.5-0.5 1.3 0.1 0.7 0.7 2.4 1 3.8 0.9 1.4-0.2 3.2-0.5 4-0.7 0.8-0.1 2.4-1.3 3.5-2.6 1.9-2.1 2.1-2.2 3.5-0.6 1.1 1.2 2.4 1.5 5.3 1 3.2-0.5 3.7-0.4 3.7 1.4 0 1.1 0.6 2.6 1.3 3.3 0.6 0.7 2.8 1.4 4.7 1.5 1.9 0.1 4.2-0.2 5-0.7 0.9-0.6 1.5-2.5 1.5-4.6 0-2.4-0.7-4.1-2.5-5.7-1.4-1.3-3.7-3-5.3-3.8-1.5-0.8-2.7-1.8-2.7-2.3 0-0.4 0.9-0.7 2-0.7 1.1 0 2 0.3 2 0.7 0 0.5 0.9 0.9 2 1 1.1 0.2 2.4-0.4 3-1.2 0.7-1 0.6-1.9-0.2-2.8-0.7-0.6-2.8-1.8-4.5-2.5-2.7-1-3.7-1-5.5 0-1.2 0.7-2.8 1.7-3.4 2.3-0.9 0.8-0.9 1.9 0 4.8 0.7 2.4 1.7 3.7 2.9 3.7 0.9 0 1.7 0.4 1.7 1 0 0.6-0.6 1-1.2 1.1-0.7 0.1-2.4 0-3.8-0.1-1.4-0.1-3-1-3.7-1.9-0.7-0.9-1.2-5-1.3-9.9 0-7.4-0.2-8.2-1.9-8.2-1.1 0-2.2 1-2.6 2.2zm-34.1 1.7c-1.2 0.5-3.3 2.2-4.8 4-1.4 1.7-2.3 3.3-1.8 3.6 0.4 0.3 0 0.5-0.8 0.5-0.8 0-1.9-1-2.5-2.2-0.6-1.1-2-2.5-3.2-3-2-0.7-2.2-0.5-1.8 1.4 0.3 1.3 0.7 4 1 6 0.3 2.1 0.9 4 1.5 4.3 0.6 0.3 1 1.6 1 3 0 1.5 0.8 2.9 2 3.5q2 1 1.5 0c-0.3-0.6-0.1-1 0.5-1 0.6 0 1.5-1.5 2-3.3q1.1-3.2 1.8-1.9c0.4 0.8 1 1.3 1.5 1.3 0.4-0.1 1.7 0.2 3 0.5 1.2 0.4 2.5 0.8 3 1 0.4 0.2 2.1 0.4 3.7 0.4q3 0 3 1.5c0 0.8 0.7 2.2 1.5 3 0.8 0.8 1.7 1.5 2 1.5 0.3 0 0.3-0.4 0-1-0.3-0.6 0.3-1 1.3-1 1.4 0 1.6-0.5 0.9-3.2-0.5-1.8-1.1-5.6-1.5-8.5-0.5-3.7-1.2-5.4-2.4-5.8-1.6-0.4-1.8 0.2-1.8 4.5 0 4.7-0.2 5-2.5 5-1.4 0-2.7-0.4-3-1-0.3-0.6-1.6-1-3-1-2 0-2.4-0.4-2.1-2.3 0.2-1.2 1.5-3.4 3-5 2.1-2.2 2.4-3 1.4-4.2-0.7-0.9-1.5-1.5-1.8-1.5-0.3 0.1-1.5 0.5-2.6 0.9zm-176.1 1.1c-1.6 0.3-4.2 1.3-5.9 2.1-2.2 0.9-3 1.9-2.6 2.9 0.3 0.8 1.2 2.1 1.9 2.7 0.7 0.7 1.4 3.2 1.5 5.5 0.1 2.4 0.1 5.5 0 7-0.1 1.6 0.2 2.6 0.8 2.3 0.6-0.3 1-0.1 1 0.5 0 0.6 1.2 0.8 2.8 0.5 1.5-0.2 5-0.6 7.9-0.7 2.8-0.2 4.9-0.6 4.7-1.1-0.2-0.4 0.3-1.3 1.1-2 0.9-0.6 1.6-1.9 1.5-2.7 0-1 0.8-0.6 2.3 1.2 1.2 1.4 3.2 3.1 4.5 3.7 1.2 0.6 3.1 1.1 4.2 1.1 1.1 0 3.6-1.5 5.6-3.3 3.2-2.9 3.5-3.7 3.3-7.7-0.2-2.5-0.8-4.9-1.4-5.5-0.6-0.6-2.1-1.6-3.3-2.3-1.2-0.6-3.8-1.2-5.7-1.2-1.9 0-3.5 0.4-3.5 1 0 0.6-0.8 1-1.7 1-1-0.1-2.4 0.6-3 1.5-0.7 0.8-1.6 1.3-2 1.1-0.5-0.2-0.8 0.4-0.8 1.3 0 0.9-0.9 1.7-2.2 1.8-1.3 0.2-2.3-0.1-2.3-0.7 0-0.6 0.6-1.9 1.3-3 0.8-1.4 0.9-2.5 0.2-3.6-0.5-0.9-2.5-2.1-4.2-2.8-1.8-0.7-4.5-0.9-6-0.6zm248.6 1c0.6 1.1 1.8 2 2.6 2 0.8 0 1.5-0.9 1.5-2 0-1.5-0.7-2-2.6-2-2.2 0-2.4 0.2-1.5 2zm-59.6-0.3c0.4 0.5 1 0.5 1.4 0 0.3-0.4 0-0.7-0.8-0.7-0.8 0-1.1 0.3-0.6 0.7zm66.2 2.8c-0.4 1.8 0.2 3.2 2 5l2.5 2.5c3.4-3.7 3.8-5.2 3.4-6.5-0.4-1.1-1.2-2.3-1.8-2.7-0.6-0.4-2.1-0.8-3.3-0.8-1.6 0-2.4 0.7-2.8 2.5zm12.5-0.5c0 1.1 0.3 2.2 0.8 2.4 0.4 0.3 1.8-0.1 3.1-0.7 1.4-0.7 2.6-1.8 2.8-2.5 0.2-0.8-0.9-1.2-3.2-1.2-2.8 0-3.5 0.4-3.5 2zm-177.8 3c-3.3 1.8-4.8 3.3-5.4 5.5-0.4 1.7-0.5 3.9-0.2 5 0.3 1.1 1.3 2.1 2.2 2.3 0.9 0.1 3.8 0.3 6.5 0.2 2.6 0 4.7 0.4 4.7 1 0 0.6-0.5 1-1.1 1-0.6 0-1.7 0.7-2.5 1.5-0.8 0.8-1.4 1.7-1.4 2 0 0.3 2.2 0.4 5 0.2l5-0.2c0 6.2 0.6 7.8 1.6 8.2 1 0.5 1.9 0.2 2.4-0.7 0.5-0.8 0.6-3.6 0.2-6.3l-0.7-4.7c5 0 6.5 0.4 6.5 1 0 0.6 1.8 1 4 1 3.1 0 4.7-0.7 7-3 1.7-1.7 3-3.7 3-4.5 0-0.8 0.5-1.5 1-1.5 0.6 0 2.1 1.2 3.4 2.7 1.4 1.6 2.3 3.1 2 3.5-0.2 0.5-0.1 0.7 0.4 0.6 0.4-0.1 2.3 0.3 4.2 0.9 2.6 0.9 4.4 0.9 7 0 1.9-0.7 4.1-1.8 4.8-2.5 0.6-0.6 1.2-1.9 1.2-2.7 0-0.8-0.7-1.5-1.5-1.5-0.8 0-1.7 0.4-2 1-0.3 0.6-2.5 1-5 1-2.5 0-4.7-0.4-5-1-0.3-0.6 0.9-1 2.8-1 1.7 0 4.4-0.5 5.9-1.2 1.6-0.7 2.8-2 2.9-2.8 0.1-0.8 0-1.9-0.1-2.5-0.1-0.6-0.3-1.5-0.4-2.2 0-0.6-0.3-1.1-0.6-1-0.3 0-2.3-0.5-4.5-1.1-2.6-0.8-4.1-0.8-4.2-0.2-0.2 0.6-1 1-1.9 1-0.8 0-2.1 0.6-2.8 1.2-0.7 0.7-1.5 2.1-1.9 3-0.4 1-1.4 1.8-2.2 1.8-0.9 0-1.6-1-1.6-2.3-0.1-1.2 0-2.6 0.1-3.2 0.1-0.6-0.2-0.7-0.7-0.3-0.4 0.5-1.4 0.3-2-0.2-0.7-0.6-2-0.8-2.8-0.5-1.1 0.4-1.3 1.4-0.9 3.7 0.3 1.9 0 4.5-0.8 6.1-0.7 1.5-2.1 3-3 3.3-1 0.2-2.2 0.2-2.8-0.1-0.5-0.3-1-2.3-1-4.5 0-2.2 0.5-4.2 1-4.5 0.6-0.3 0.6-1.4-0.2-3-0.7-1.4-1.9-2.5-2.6-2.5-0.7 0-1.9 0.6-2.6 1.2-0.8 0.7-1.4 3.7-1.5 6.8 0 3-0.3 5.7-0.6 6-0.4 0.3-1-0.2-1.5-1-0.5-0.8-0.7-2.3-0.4-3.3 0.2-0.9 0-1.5-0.6-1.2-0.6 0.3-0.9-0.9-0.7-3 0.1-2.3-0.3-3.9-1.3-4.5-0.8-0.6-3.2-0.9-5.4-0.7-2.1 0.1-5.9 1.3-8.4 2.7zm-91.2 1.5c0 2.1 0.3 2.4 2.3 1.8 1.2-0.3 2.5-1.1 2.9-1.7 0.4-0.6 0.8-1.4 0.8-1.9 0-0.4-1.3-0.7-3-0.7-2.5 0-3 0.4-3 2.5zm23 1.7c-0.8 0.7-1.3 2.5-1.2 4 0.1 1.7 1 3.2 2.2 3.8 1.1 0.6 2.3 1 2.8 1 0.4 0 1.7-0.7 2.9-1.7 1.2-1 2.2-2.5 2.2-3.3 0-0.8-1-2.3-2.2-3.3-1.2-1-2.9-1.7-3.7-1.7-0.9 0-2.2 0.5-3 1.2zm68.3 1.3c-0.7 0.8-1.3 2.2-1.3 3 0 1 1 1.5 3.3 1.5 1.8 0.1 3.9-0.7 4.8-1.7 0.9-1 1.9-2.4 2.2-3.1 0.5-0.9-0.5-1.2-3.5-1.2-2.5 0.1-4.8 0.7-5.5 1.5zm47.2-0.5c-0.3 0.6 0.3 1 1.3 1 0.9 0 2.4-0.5 3.2-1 1.2-0.8 0.9-1-1.2-1-1.5 0-2.9 0.4-3.3 1zm63.7 0.2c-0.6 0.7-0.9 2.2-0.6 3.3 0.2 1.1 1.4 2.3 2.7 2.7 1.5 0.5 2.7 0.2 3.8-1 1-0.9 2-2.7 2.3-4 0.5-2 0.3-2.2-3.3-2.2-2.1 0-4.4 0.6-4.9 1.2zm48.7 0.5c-0.7 0.3-1.2 1.3-1.1 2.4 0.1 1.2 1 1.9 2.5 1.9q2.2 0 2.5-2c0.1-1.1-0.4-2.2-1.2-2.4-0.7-0.1-1.9-0.1-2.7 0.1zm-247.8 3.9c-0.8 0.3-1.4 1.2-1.3 2 0.1 0.8 0.9 1.6 1.7 1.9 0.8 0.3 2.6 0.5 4 0.5 1.4 0 2.8-0.7 3.1-1.5 0.4-0.9 0.5-1.8 0.3-2-0.2-0.2-1.7-0.6-3.4-0.9-1.6-0.3-3.7-0.3-4.4 0zm224.9 3.9c0 0.8 0.3 1.5 0.8 1.5 0.4 0.1 1.2-0.6 1.9-1.5 1-1.2 0.8-1.5-0.8-1.5-1 0-1.9 0.7-1.9 1.5z"/>
</svg>